<?xml version="1.0" encoding="utf-8"?>
<!-- Generator: Adobe Illustrator 28.2.0, SVG Export Plug-In . SVG Version: 6.00 Build 0)  -->
<svg version="1.1" id="Layer_1" xmlns="http://www.w3.org/2000/svg" xmlns:xlink="http://www.w3.org/1999/xlink" x="0px" y="0px"
	 viewBox="0 0 800 800" style="enable-background:new 0 0 800 800;" xml:space="preserve">
<style type="text/css">
	.st0{fill:#FEFEFE;}
</style>
<path class="st0" d="M774.9,402.3c0-207-167.9-374.9-374.9-374.9S25.1,195.3,25.1,402.3c0,186.4,136,341,314.1,370l2.1,0.3V510.7
	h-95.2V402.3h95.2v-82.5c-0.5-4.2-0.7-9-0.7-13.9c0-73.1,59.2-132.3,132.3-132.3c3.5,0,7,0.2,10.5,0.4l-0.4,0
	c30,0.4,59,3.1,87.3,7.8l-3.4-0.5v92.2h-47.3c-2.2-0.3-4.6-0.5-7.1-0.5c-29.9,0-54.2,24.2-54.2,54.2c0,1.7,0.1,3.4,0.2,5.1l0-0.2
	v70.3h104l-16.6,108.4h-87.4v261.9C638.9,743.3,774.9,588.6,774.9,402.3L774.9,402.3L774.9,402.3z"/>
</svg>
