<?xml version="1.0" encoding="utf-8"?>
<!-- Generator: Adobe Illustrator 28.2.0, SVG Export Plug-In . SVG Version: 6.00 Build 0)  -->
<svg version="1.1" id="Layer_1" xmlns="http://www.w3.org/2000/svg" xmlns:xlink="http://www.w3.org/1999/xlink" x="0px" y="0px"
	 viewBox="0 0 800 800" style="enable-background:new 0 0 800 800;" xml:space="preserve">
<style type="text/css">
	.st0{fill:#FEFEFE;}
</style>
<g id="Layer_2_00000030487805880306617980000003164765020010240421_">
	<g id="icons_Q2">
		<path class="st0" d="M683.3,68.3H116.7c-26.7-0.9-49.1,20-50,46.6c0,0.6,0,1.1,0,1.7V685c0,26.7,21.6,48.3,48.3,48.4
			c0.6,0,1.1,0,1.7,0h566.7c26.7,0,48.3-21.6,48.3-48.3c0,0,0,0,0,0V116.7C731.7,90,710,68.3,683.3,68.3L683.3,68.3z M265,635H165
			V318.3h100V635z M215,275c-31.6-0.9-56.7-26.8-56.7-58.3c0-31.3,25.4-56.7,56.7-56.6c31.3,0,56.6,25.4,56.6,56.6
			C271.7,248.2,246.6,274.1,215,275L215,275z M633.3,635H535V480c0-36.7,0-83.3-51.7-83.3s-58.3,40-58.3,81.7V635h-98.3V318.3H420
			v43.3h1.7c19.1-33.2,55.1-53.1,93.3-51.7c100,0,118.3,65,118.3,151.7V635z"/>
	</g>
</g>
</svg>
