<?xml version="1.0" encoding="utf-8"?>
<!-- Generator: Adobe Illustrator 28.2.0, SVG Export Plug-In . SVG Version: 6.00 Build 0)  -->
<svg version="1.1" id="Layer_1" xmlns="http://www.w3.org/2000/svg" xmlns:xlink="http://www.w3.org/1999/xlink" x="0px" y="0px"
	 viewBox="0 0 800 800" style="enable-background:new 0 0 800 800;" xml:space="preserve">
<style type="text/css">
	.st0{fill-rule:evenodd;clip-rule:evenodd;fill:#FEFEFE;}
</style>
<g id="Page-1">
	<g id="Dribbble-Light-Preview" transform="translate(-220.000000, -7399.000000)">
		<g id="icons" transform="translate(56.000000, 160.000000)">
			<path id="pinterest-_x5B__x23_180_x5D_" class="st0" d="M559,7239c-219.1,0-395,177.4-395,398.3c0,164,96.3,301.2,235.7,364.8
				c0-74.7-0.5-65.1,56.4-308c-31.3-63.1-7-167.3,63.1-167.3c97.2,0,31.2,144.1,19.9,200.8c-10,43.5,23.2,77,63.1,77
				c76.4,0,126.1-97.1,126.1-210.9c0-87.1-59.7-150.6-162.6-150.6c-183,0-229.4,203.8-166,267.8c16,24.2,0,25.3,0,56.9
				c-11.1,33.4-99.6-15.2-99.6-140.6c0-113.8,93-247.7,282.2-247.7c149.4,0,249,110.4,249,227.6c0,157.3-86.3,271.1-212.4,271.1
				c-43.2,0-83-23.4-96.3-50.2c-24.1,93.8-29,141.4-66.4,194.1c36.5,10,73,16.7,112.9,16.7c219.1,0,395-177.4,395-398.3
				C954.1,7416.4,778.1,7239,559,7239"/>
		</g>
	</g>
</g>
</svg>
