<svg id="logo_plus_motto" data-name="logo plus motto" xmlns="http://www.w3.org/2000/svg" width="234.286" height="56.613" viewBox="0 0 234.286 56.613">
  <defs>
    <style>
      .cls-1 {
        fill: #fbfbfb;
      }
    </style>
  </defs>
  <g id="Group_4" data-name="Group 4" transform="translate(52.34 9.046)">
    <path id="Path_4" data-name="Path 4" class="cls-1" d="M3252.4,271.835l11.4-35.249h8.064l11.4,35.249h-5.839l-9.342-30.979h-.5l-9.343,30.979Zm5.283-8.589V258.53H3277.7v4.717Z" transform="translate(-3252.395 -236.586)"/>
    <path id="Path_5" data-name="Path 5" class="cls-1" d="M3399.949,271.835V236.586h5.783v35.249Zm5.394-13.4v-4.716h8.175a7.75,7.75,0,0,0,5.158-1.564,5.439,5.439,0,0,0,1.849-4.393,6.118,6.118,0,0,0-1.849-4.779,7.406,7.406,0,0,0-5.158-1.676h-8.063l-.667-4.717h8.731q6.144,0,9.5,2.78a9.682,9.682,0,0,1,3.351,7.894q0,5.313-3.351,8.241t-9.5,2.929Zm15.793,13.4-8.842-16.582h6.117l9.4,16.582Z" transform="translate(-3354.106 -236.586)"/>
    <path id="Path_6" data-name="Path 6" class="cls-1" d="M3540.772,300.113v-22.5h5.784v22.5Z" transform="translate(-3451.177 -264.864)"/>
    <path id="Path_7" data-name="Path 7" class="cls-1" d="M3602.342,271.835l12.846-18.518,10.51-16.731h6.4l-13.235,19.461-10.121,15.787Zm23.356,0-10.121-15.787-13.236-19.461h6.4l10.51,16.731,12.846,18.518Z" transform="translate(-3493.619 -236.586)"/>
    <path id="Path_8" data-name="Path 8" class="cls-1" d="M3753.9,271.835V236.586h5.783v35.249Zm0-30.532v-4.717h26.137V241.3Zm0,15.241v-4.716h21.132v4.716Zm0,15.291v-4.717h26.137v4.717Z" transform="translate(-3598.088 -236.586)"/>
    <circle id="Ellipse_2" data-name="Ellipse 2" class="cls-1" cx="5.118" cy="5.118" r="5.118" transform="translate(87.368 -0.402)"/>
    <path id="Path_3" data-name="Path 3" class="cls-1" d="M3118.511,258.339h-4.92a10.884,10.884,0,1,0-21.24,0h-4.92a3.5,3.5,0,0,1-3.075-5.165l11.684-21.547,6.168-23.617a.721.721,0,0,1,1.4,0l6.046,23.151,11.937,22.014A3.5,3.5,0,0,1,3118.511,258.339Z" transform="translate(-3136.269 -216.515)"/>
    <circle id="Ellipse_1" data-name="Ellipse 1" class="cls-1" cx="8.13" cy="8.13" r="8.13" transform="translate(-41.428 31.307)"/>
  </g>
</svg>
